<svg width="12" height="12" viewBox="0 0 12 12" fill="none" xmlns="http://www.w3.org/2000/svg">
<path d="M7.5 11.375H4.5C1.785 11.375 0.625 10.215 0.625 7.5V4.5C0.625 1.785 1.785 0.625 4.5 0.625H7.5C10.215 0.625 11.375 1.785 11.375 4.5V7.5C11.375 10.215 10.215 11.375 7.5 11.375ZM4.5 1.375C2.195 1.375 1.375 2.195 1.375 4.5V7.5C1.375 9.805 2.195 10.625 4.5 10.625H7.5C9.805 10.625 10.625 9.805 10.625 7.5V4.5C10.625 2.195 9.805 1.375 7.5 1.375H4.5Z" fill="#292D32"/>
<path d="M5.99973 7.6301C5.90473 7.6301 5.80973 7.5951 5.73473 7.5201L4.23473 6.0201C4.08973 5.8751 4.08973 5.6351 4.23473 5.4901C4.37973 5.3451 4.61973 5.3451 4.76473 5.4901L5.99973 6.7251L7.23473 5.4901C7.37973 5.3451 7.61973 5.3451 7.76473 5.4901C7.90973 5.6351 7.90973 5.8751 7.76473 6.0201L6.26473 7.5201C6.18973 7.5951 6.09473 7.6301 5.99973 7.6301Z" fill="#292D32"/>
<path d="M6 7.62988C5.795 7.62988 5.625 7.45988 5.625 7.25488V3.25488C5.625 3.04988 5.795 2.87988 6 2.87988C6.205 2.87988 6.375 3.04988 6.375 3.25488V7.25488C6.375 7.46488 6.205 7.62988 6 7.62988Z" fill="#292D32"/>
<path d="M6.00022 9.11508C4.94522 9.11508 3.88522 8.94508 2.88022 8.61008C2.68522 8.54508 2.58022 8.33008 2.64522 8.13508C2.71022 7.94008 2.92022 7.83008 3.12022 7.90008C4.98022 8.52008 7.02521 8.52008 8.88522 7.90008C9.08021 7.83508 9.29522 7.94008 9.36022 8.13508C9.42522 8.33008 9.32022 8.54508 9.12522 8.61008C8.11522 8.95008 7.05522 9.11508 6.00022 9.11508Z" fill="#292D32"/>
</svg>
