<svg width="18" height="18" viewBox="0 0 18 18" fill="none" xmlns="http://www.w3.org/2000/svg">
<path d="M14.2649 2.61C12.8099 1.155 11.3849 1.1175 9.89243 2.61L8.98493 3.5175C8.90993 3.5925 8.87993 3.7125 8.90993 3.8175C9.47993 5.805 11.0699 7.395 13.0574 7.965C13.0874 7.9725 13.1174 7.98 13.1474 7.98C13.2299 7.98 13.3049 7.95 13.3649 7.89L14.2649 6.9825C15.0074 6.2475 15.3674 5.535 15.3674 4.815C15.3749 4.0725 15.0149 3.3525 14.2649 2.61Z" fill="white"/>
<path d="M11.7077 8.64748C11.4902 8.54248 11.2802 8.43748 11.0777 8.31748C10.9127 8.21998 10.7552 8.11498 10.5977 8.00248C10.4702 7.91998 10.3202 7.79998 10.1777 7.67998C10.1627 7.67248 10.1102 7.62748 10.0502 7.56748C9.80274 7.35748 9.52524 7.08748 9.27774 6.78748C9.25524 6.77248 9.21774 6.71998 9.16524 6.65248C9.09024 6.56248 8.96274 6.41248 8.85024 6.23998C8.76024 6.12748 8.65524 5.96248 8.55774 5.79748C8.43774 5.59498 8.33274 5.39248 8.22774 5.18248V5.18248C8.09007 4.88747 7.70288 4.79983 7.47268 5.03003L3.25524 9.24748C3.15774 9.34498 3.06774 9.53248 3.04524 9.65998L2.64024 12.5325C2.56524 13.0425 2.70774 13.5225 3.02274 13.845C3.29274 14.1075 3.66774 14.25 4.07274 14.25C4.16274 14.25 4.25274 14.2425 4.34274 14.2275L7.22274 13.8225C7.35774 13.8 7.54524 13.71 7.63524 13.6125L11.8596 9.38807C12.0852 9.16248 12.0005 8.77433 11.7077 8.64748V8.64748Z" fill="white"/>
</svg>
