<svg width="44" height="44" viewBox="0 0 44 44" fill="none" xmlns="http://www.w3.org/2000/svg">
<circle cx="22" cy="22" r="22" fill="#211E1E"/>
<path d="M30.5794 14.0311C28.2083 11.6599 25.8861 11.5988 23.4538 14.0311L21.9749 15.5099C21.8527 15.6322 21.8038 15.8277 21.8527 15.9988C22.7816 19.2377 25.3727 21.8288 28.6116 22.7577C28.6605 22.7699 28.7094 22.7822 28.7583 22.7822C28.8927 22.7822 29.0149 22.7333 29.1127 22.6355L30.5794 21.1566C31.7894 19.9588 32.3761 18.7977 32.3761 17.6244C32.3883 16.4144 31.8016 15.2411 30.5794 14.0311Z" fill="white"/>
<path d="M26.4122 23.8701C26.0577 23.699 25.7155 23.5279 25.3855 23.3324C25.1166 23.1735 24.86 23.0024 24.6033 22.819C24.3955 22.6846 24.1511 22.489 23.9188 22.2935C23.8944 22.2813 23.8088 22.2079 23.7111 22.1101C23.3077 21.7679 22.8555 21.3279 22.4522 20.839C22.4155 20.8146 22.3544 20.729 22.2688 20.619C22.1466 20.4724 21.9388 20.2279 21.7555 19.9468C21.6088 19.7635 21.4377 19.4946 21.2788 19.2257C21.0833 18.8957 20.9122 18.5657 20.7411 18.2235C20.7152 18.168 20.6901 18.1128 20.6658 18.0579C20.4855 17.6505 19.9542 17.5314 19.6392 17.8465L12.6377 24.8479C12.4788 25.0068 12.3322 25.3124 12.2955 25.5201L11.6355 30.2013C11.5133 31.0324 11.7455 31.8146 12.2588 32.3401C12.6988 32.7679 13.31 33.0001 13.97 33.0001C14.1166 33.0001 14.2633 32.9879 14.41 32.9635L19.1033 32.3035C19.3233 32.2668 19.6288 32.1201 19.7755 31.9613L26.7682 24.9685C27.0855 24.6513 26.9658 24.1069 26.5532 23.9308C26.5067 23.911 26.4598 23.8908 26.4122 23.8701Z" fill="white"/>
</svg>
