<svg width="32" height="32" viewBox="0 0 32 32" fill="none" xmlns="http://www.w3.org/2000/svg">
<rect width="32" height="32" rx="8" fill="black"/>
<path d="M15.625 23.3125C11.3875 23.3125 7.9375 19.8625 7.9375 15.625C7.9375 11.3875 11.3875 7.9375 15.625 7.9375C19.8625 7.9375 23.3125 11.3875 23.3125 15.625C23.3125 19.8625 19.8625 23.3125 15.625 23.3125ZM15.625 9.0625C12.0025 9.0625 9.0625 12.01 9.0625 15.625C9.0625 19.24 12.0025 22.1875 15.625 22.1875C19.2475 22.1875 22.1875 19.24 22.1875 15.625C22.1875 12.01 19.2475 9.0625 15.625 9.0625Z" fill="white"/>
<path d="M23.5001 24.0625C23.3576 24.0625 23.2151 24.01 23.1026 23.8975L21.6026 22.3975C21.3851 22.18 21.3851 21.82 21.6026 21.6025C21.8201 21.385 22.1801 21.385 22.3976 21.6025L23.8976 23.1025C24.1151 23.32 24.1151 23.68 23.8976 23.8975C23.7851 24.01 23.6426 24.0625 23.5001 24.0625Z" fill="white"/>
</svg>
